{
	"asset":{
		"generator":"Khronos glTF Blender I/O v4.0.44",
		"version":"2.0"
	},
	"extensionsUsed":[
		"KHR_texture_transform"
	],
	"extensionsRequired":[
		"KHR_texture_transform"
	],
	"scene":0,
	"scenes":[
		{
			"name":"Scene",
			"nodes":[
				0
			]
		}
	],
	"nodes":[
		{
			"mesh":0,
			"name":"Cube.013",
			"rotation":[
				0,
				-0.7071068286895752,
				0,
				0.7071068286895752
			],
			"scale":[
				0.9754078388214111,
				0.9754078388214111,
				0.9754078388214111
			]
		}
	],
	"materials":[
		{
			"doubleSided":true,
			"name":"Upper Wall.002",
			"pbrMetallicRoughness":{
				"baseColorFactor":[
					0.17085354030132294,
					0.253937304019928,
					0.6636756062507629,
					1
				],
				"metallicFactor":0.4000000059604645
			}
		},
		{
			"doubleSided":true,
			"name":"WALL.002",
			"pbrMetallicRoughness":{
				"baseColorFactor":[
					0.316093385219574,
					0.316093385219574,
					0.316093385219574,
					1
				],
				"metallicFactor":0.3936507999897003,
				"roughnessFactor":0.5
			}
		},
		{
			"alphaMode":"BLEND",
			"doubleSided":true,
			"name":"Cycles_Architectural_Glass.002",
			"pbrMetallicRoughness":{}
		},
		{
			"doubleSided":true,
			"name":"Wood_Dark.002",
			"normalTexture":{
				"extensions":{
					"KHR_texture_transform":{
						"offset":[
							-0.9999451676980164,
							0.9895280566566739
						],
						"rotation":1.5603241920471191
					}
				},
				"index":0
			},
			"pbrMetallicRoughness":{
				"baseColorTexture":{
					"extensions":{
						"KHR_texture_transform":{
							"offset":[
								-0.9999451676980164,
								0.9895280566566739
							],
							"rotation":1.5603241920471191
						}
					},
					"index":1
				},
				"metallicFactor":0,
				"metallicRoughnessTexture":{
					"extensions":{
						"KHR_texture_transform":{
							"offset":[
								-0.9999451676980164,
								0.9895280566566739
							],
							"rotation":1.5603241920471191
						}
					},
					"index":2
				}
			}
		},
		{
			"doubleSided":true,
			"name":"Material.003",
			"pbrMetallicRoughness":{
				"baseColorFactor":[
					0.05605534464120865,
					0.13196492195129395,
					0.46072283387184143,
					1
				],
				"metallicFactor":0.2698412835597992,
				"roughnessFactor":0.9317460060119629
			}
		}
	],
	"meshes":[
		{
			"name":"Cube.002",
			"primitives":[
				{
					"attributes":{
						"POSITION":0,
						"NORMAL":1,
						"TEXCOORD_0":2
					},
					"indices":3,
					"material":0
				},
				{
					"attributes":{
						"POSITION":4,
						"NORMAL":5,
						"TEXCOORD_0":6
					},
					"indices":7,
					"material":1
				},
				{
					"attributes":{
						"POSITION":8,
						"NORMAL":9,
						"TEXCOORD_0":10
					},
					"indices":11,
					"material":2
				},
				{
					"attributes":{
						"POSITION":12,
						"NORMAL":13,
						"TEXCOORD_0":14
					},
					"indices":15,
					"material":3
				},
				{
					"attributes":{
						"POSITION":16,
						"NORMAL":17,
						"TEXCOORD_0":18
					},
					"indices":19,
					"material":4
				}
			]
		}
	],
	"textures":[
		{
			"sampler":0,
			"source":0
		},
		{
			"sampler":0,
			"source":1
		},
		{
			"sampler":0,
			"source":2
		}
	],
	"images":[
		{
			"mimeType":"image/jpeg",
			"name":"Wood051_2K_NormalGL",
			"uri":"Wood051_2K_NormalGL.jpg"
		},
		{
			"mimeType":"image/jpeg",
			"name":"Wood051_2K_Color",
			"uri":"Wood051_2K_Color.jpg"
		},
		{
			"mimeType":"image/png",
			"name":"Wood051_2K_Roughness",
			"uri":"Wood051_2K_Roughness.png"
		}
	],
	"accessors":[
		{
			"bufferView":0,
			"componentType":5126,
			"count":8662,
			"max":[
				2.71638560295105,
				11.642155647277832,
				2.5751819610595703
			],
			"min":[
				-2.5117990970611572,
				1.799309492111206,
				-3.5342960357666016
			],
			"type":"VEC3"
		},
		{
			"bufferView":1,
			"componentType":5126,
			"count":8662,
			"type":"VEC3"
		},
		{
			"bufferView":2,
			"componentType":5126,
			"count":8662,
			"type":"VEC2"
		},
		{
			"bufferView":3,
			"componentType":5123,
			"count":19467,
			"type":"SCALAR"
		},
		{
			"bufferView":4,
			"componentType":5126,
			"count":13580,
			"max":[
				2.71638560295105,
				11.075437545776367,
				3.8369545936584473
			],
			"min":[
				-3.2352874279022217,
				-0.0003216266632080078,
				-3.5342960357666016
			],
			"type":"VEC3"
		},
		{
			"bufferView":5,
			"componentType":5126,
			"count":13580,
			"type":"VEC3"
		},
		{
			"bufferView":6,
			"componentType":5126,
			"count":13580,
			"type":"VEC2"
		},
		{
			"bufferView":7,
			"componentType":5123,
			"count":23880,
			"type":"SCALAR"
		},
		{
			"bufferView":8,
			"componentType":5126,
			"count":3400,
			"max":[
				2.621657133102417,
				10.515707969665527,
				2.5216338634490967
			],
			"min":[
				-2.4142940044403076,
				2.1434035301208496,
				-3.4881393909454346
			],
			"type":"VEC3"
		},
		{
			"bufferView":9,
			"componentType":5126,
			"count":3400,
			"type":"VEC3"
		},
		{
			"bufferView":10,
			"componentType":5126,
			"count":3400,
			"type":"VEC2"
		},
		{
			"bufferView":11,
			"componentType":5123,
			"count":5100,
			"type":"SCALAR"
		},
		{
			"bufferView":12,
			"componentType":5126,
			"count":36680,
			"max":[
				2.6759860515594482,
				10.56010627746582,
				2.575963258743286
			],
			"min":[
				-2.468623399734497,
				1.9457647800445557,
				-3.542468547821045
			],
			"type":"VEC3"
		},
		{
			"bufferView":13,
			"componentType":5126,
			"count":36680,
			"type":"VEC3"
		},
		{
			"bufferView":14,
			"componentType":5126,
			"count":36680,
			"type":"VEC2"
		},
		{
			"bufferView":15,
			"componentType":5123,
			"count":81855,
			"type":"SCALAR"
		},
		{
			"bufferView":16,
			"componentType":5126,
			"count":11511,
			"max":[
				2.7763237953186035,
				11.322418212890625,
				2.684586763381958
			],
			"min":[
				-2.5644075870513916,
				3.1376500129699707,
				-3.635769844055176
			],
			"type":"VEC3"
		},
		{
			"bufferView":17,
			"componentType":5126,
			"count":11511,
			"type":"VEC3"
		},
		{
			"bufferView":18,
			"componentType":5126,
			"count":11511,
			"type":"VEC2"
		},
		{
			"bufferView":19,
			"componentType":5123,
			"count":26373,
			"type":"SCALAR"
		}
	],
	"bufferViews":[
		{
			"buffer":0,
			"byteLength":103944,
			"byteOffset":0,
			"target":34962
		},
		{
			"buffer":0,
			"byteLength":103944,
			"byteOffset":103944,
			"target":34962
		},
		{
			"buffer":0,
			"byteLength":69296,
			"byteOffset":207888,
			"target":34962
		},
		{
			"buffer":0,
			"byteLength":38934,
			"byteOffset":277184,
			"target":34963
		},
		{
			"buffer":0,
			"byteLength":162960,
			"byteOffset":316120,
			"target":34962
		},
		{
			"buffer":0,
			"byteLength":162960,
			"byteOffset":479080,
			"target":34962
		},
		{
			"buffer":0,
			"byteLength":108640,
			"byteOffset":642040,
			"target":34962
		},
		{
			"buffer":0,
			"byteLength":47760,
			"byteOffset":750680,
			"target":34963
		},
		{
			"buffer":0,
			"byteLength":40800,
			"byteOffset":798440,
			"target":34962
		},
		{
			"buffer":0,
			"byteLength":40800,
			"byteOffset":839240,
			"target":34962
		},
		{
			"buffer":0,
			"byteLength":27200,
			"byteOffset":880040,
			"target":34962
		},
		{
			"buffer":0,
			"byteLength":10200,
			"byteOffset":907240,
			"target":34963
		},
		{
			"buffer":0,
			"byteLength":440160,
			"byteOffset":917440,
			"target":34962
		},
		{
			"buffer":0,
			"byteLength":440160,
			"byteOffset":1357600,
			"target":34962
		},
		{
			"buffer":0,
			"byteLength":293440,
			"byteOffset":1797760,
			"target":34962
		},
		{
			"buffer":0,
			"byteLength":163710,
			"byteOffset":2091200,
			"target":34963
		},
		{
			"buffer":0,
			"byteLength":138132,
			"byteOffset":2254912,
			"target":34962
		},
		{
			"buffer":0,
			"byteLength":138132,
			"byteOffset":2393044,
			"target":34962
		},
		{
			"buffer":0,
			"byteLength":92088,
			"byteOffset":2531176,
			"target":34962
		},
		{
			"buffer":0,
			"byteLength":52746,
			"byteOffset":2623264,
			"target":34963
		}
	],
	"samplers":[
		{
			"magFilter":9729,
			"minFilter":9987
		}
	],
	"buffers":[
		{
			"byteLength":2676012,
			"uri":"Building.bin"
		}
	]
}
